<svg xmlns="http://www.w3.org/2000/svg" width="200" height="41" id="LOGO" viewBox="0 0 200 41"  >
				<metadata><?xpacket begin="﻿" id="W5M0MpCehiHzreSzNTczkc9d"?>
				<x:xmpmeta xmlns:x="adobe:ns:meta/" x:xmptk="Adobe XMP Core 5.6-c138 79.159824, 2016/09/14-01:09:01">
				<rdf:RDF xmlns:rdf="http://www.w3.org/1999/02/22-rdf-syntax-ns#">
				<rdf:Description rdf:about=""/>
				</rdf:RDF>
				</x:xmpmeta>              
				<?xpacket end="w"?></metadata>
				<defs>
					<style>
					.cls-1 {
						fill: #111;
						fill-rule: evenodd;
					}
					</style>
				</defs>
				<path id="LOGO" class="cls-1" d="M1233.32,37.875c0,1.123-.86,1.681-2.26,1.681h-2.78V36.129h2.69c1.58,0,2.35.645,2.35,1.684v0.061Zm-5.04-7.539h2.3c1.34,0,2.11.539,2.11,1.6v0.042c0,1.142-.88,1.662-2.26,1.662h-2.15v-3.3Zm5.45,4.32a3.344,3.344,0,0,0,2.04-3.178V31.416c0-2.411-2.04-3.74-4.95-3.74h-5.58V42.216h5.73c3.26,0,5.45-1.37,5.45-4.009V38.123c0-1.909-1.1-2.845-2.69-3.468m12.42-6.979h-3.1v14.54h9.2V39.453h-6.1V27.676Zm19.42,8.994c0,2.016-1.02,2.99-2.63,2.99s-2.63-1-2.63-3.052V27.675h-3.1v8.912c0,3.9,2.22,5.836,5.71,5.836,3.47,0,5.73-1.909,5.73-5.9V27.675h-3.08V36.67Zm13.39-.415h5.81v-2.7h-5.81V30.377h6.61v-2.7h-9.7V42.216h9.79v-2.7h-6.7V36.255Zm18.36-2.7c-2.2-.892-2.72-1.164-2.72-2.057V31.458c0-.728.65-1.247,1.75-1.247a6.315,6.315,0,0,1,3.36,1.183l1.21-2.471a7.649,7.649,0,0,0-4.61-1.413c-2.81,0-4.81,1.662-4.81,4.2v0.043c0,2.553,1.59,3.385,4.27,4.506,2.13,0.851,2.54,1.288,2.54,2.057v0.042c0,0.872-.75,1.328-1.94,1.328a6.388,6.388,0,0,1-3.86-1.474l-1.38,2.367a8.473,8.473,0,0,0,5.3,1.808c2.89,0,4.98-1.579,4.98-4.279V38.061c0-2.263-1.33-3.281-4.09-4.507m16.81,0.02-3.32-5.9h-3.28V42.216h3.02V32.994l3.54,5.941h0.06l3.56-6v9.284h3.06V27.675h-3.3Zm13.6,8.642h3.1V27.677h-3.1v14.54Zm8.86-11.757h3.77V42.216h3.12V30.46h3.75V27.676h-10.64V30.46Zm24.46,3.052h-4.98V27.677h-3.1v14.54h3.1V36.3h4.98v5.92h3.1V27.677h-3.1v5.836Zm14.87,0.042c-2.2-.892-2.72-1.164-2.72-2.057V31.458c0-.728.65-1.247,1.75-1.247a6.287,6.287,0,0,1,3.36,1.183l1.21-2.471a7.649,7.649,0,0,0-4.61-1.413c-2.81,0-4.81,1.662-4.81,4.2v0.043c0,2.553,1.59,3.385,4.27,4.506,2.13,0.851,2.54,1.288,2.54,2.057v0.042c0,0.872-.75,1.328-1.94,1.328a6.388,6.388,0,0,1-3.86-1.474l-1.38,2.367a8.473,8.473,0,0,0,5.3,1.808c2.89,0,4.98-1.579,4.98-4.279V38.061c0-2.263-1.33-3.281-4.09-4.507m-177.64-8.812c0-.676-0.79-0.773-1.26-0.773h-0.96v1.5h1c0.37,0,1.22-.073,1.22-0.729m-0.25-2.656a0.908,0.908,0,0,0-1.1-.7h-0.87v1.448h0.81a0.961,0.961,0,0,0,1.16-.752m10.88,22.432-1.06,1.067-10.93-10.043L1186,45.585l-1.06-1.067,10.87-10-10.87-9.992,1.06-1.068,10.92,10.04,10.93-10.04,1.06,1.068-10.87,9.992Zm-14.87-19.045h0.51V21.391h-0.51V20.2h2.91c1.58,0,2.6.669,2.6,1.707a1.518,1.518,0,0,1-.89,1.408,1.54,1.54,0,0,1,1.16,1.463V24.83c0,1.126-1.08,1.825-2.81,1.825h-2.97V25.473ZM1179.99,15.01v25.2c0,11.346,16.04,15.559,16.72,15.731l0.21,0.052,0.22-.052c0.68-.173,16.72-4.385,16.72-15.731V15.01h-33.87Z" transform="translate(-1180 -15)"/>
			</svg>